<?xml version="1.0" encoding="UTF-8" standalone="no"?>
<!-- Created with Inkscape (http://www.inkscape.org/) -->

<svg
   width="240mm"
   height="70mm"
   viewBox="0 0 240 70"
   version="1.1"
   id="svg1"
   inkscape:version="1.4 (86a8ad7, 2024-10-11)"
   sodipodi:docname="logo.svg"
   xmlns:inkscape="http://www.inkscape.org/namespaces/inkscape"
   xmlns:sodipodi="http://sodipodi.sourceforge.net/DTD/sodipodi-0.dtd"
   xmlns="http://www.w3.org/2000/svg"
   xmlns:svg="http://www.w3.org/2000/svg">
  <sodipodi:namedview
     id="namedview1"
     pagecolor="#ffffff"
     bordercolor="#000000"
     borderopacity="0.25"
     inkscape:showpageshadow="2"
     inkscape:pageopacity="0.0"
     inkscape:pagecheckerboard="0"
     inkscape:deskcolor="#d1d1d1"
     inkscape:document-units="mm"
     inkscape:zoom="0.44720819"
     inkscape:cx="434.92048"
     inkscape:cy="203.48465"
     inkscape:window-width="1366"
     inkscape:window-height="697"
     inkscape:window-x="-8"
     inkscape:window-y="-8"
     inkscape:window-maximized="1"
     inkscape:current-layer="layer1" />
  <defs
     id="defs1">
    <rect
       x="489.7048"
       y="158.76274"
       width="118.51303"
       height="51.430185"
       id="rect2" />
    <rect
       x="29.069235"
       y="24.597045"
       width="232.55388"
       height="221.3734"
       id="rect1" />
  </defs>
  <g
     inkscape:label="Слой 1"
     inkscape:groupmode="layer"
     id="layer1">
    <path
       id="text1"
       style="font-style:normal;font-variant:normal;font-weight:bold;font-stretch:normal;font-size:196px;font-family:Ubuntu;-inkscape-font-specification:'Ubuntu Bold';text-align:start;writing-mode:lr-tb;direction:ltr;text-anchor:start;white-space:pre;shape-inside:url(#rect1);fill:#292a4f;stroke-width:0.410414"
       d="m 41.341,4.13703 c 1.08197,3.8594559 2.360528,8.245301 3.835942,13.157336 1.524594,4.912034 3.172354,10.057968 4.94285,15.437819 1.770497,5.379846 3.639158,10.817964 5.606377,16.314766 1.57998,4.414776 3.180251,8.660885 4.791955,12.811621 V 39.797383 h 3.64784 v 17.838191 h 7.178372 v 4.276223 H 60.538795 c 0.388181,0.999354 0.772699,2.027664 1.16272,3.011704 h 11.065993 c 0.511291,-1.290017 1.016322,-2.631742 1.524452,-3.948079 -0.432428,-0.436059 -0.770264,-0.983109 -1.006658,-1.648481 -0.249423,-0.702046 -0.374137,-1.563692 -0.374137,-2.584855 0,-0.978612 0.140563,-1.807961 0.421163,-2.488736 0.296193,-0.680775 0.685664,-1.223596 1.168922,-1.627805 0.483259,-0.404214 1.036806,-0.691256 1.660364,-0.86145 0.54203,-0.166435 1.105217,-0.246953 1.682585,-0.268716 0.298764,-0.822292 0.601013,-1.616765 0.898651,-2.448428 0.02906,-0.08119 0.05573,-0.161194 0.08475,-0.242361 -0.301327,-0.109018 -0.656484,-0.167952 -1.075904,-0.167952 -0.592379,0 -1.177106,0.06408 -1.753898,0.19172 -0.576789,0.106372 -1.075644,0.26578 -1.496548,0.478525 l -0.444415,-3.829226 c 0.202655,-0.0851 0.452082,-0.170185 0.748272,-0.255282 0.311779,-0.106367 0.647078,-0.191455 1.005626,-0.255281 0.358544,-0.0851 0.732686,-0.149169 1.122409,-0.19172 0.405314,-0.06382 0.810635,-0.0956 1.215948,-0.0956 0.773889,0 1.450513,0.09076 2.030365,0.271303 1.439123,-4.102265 2.841391,-8.182463 4.169771,-12.218892 C 86.119723,27.352334 87.742768,22.2064 89.218182,17.294366 90.693596,12.382331 91.996871,7.9964859 93.128021,4.13703 H 80.882256 c -0.983607,3.5085963 -2.065466,7.309559 -3.245797,11.402921 -1.131149,4.034886 -2.311875,8.069803 -3.541384,12.104689 -1.180331,4.034885 -2.360541,7.894077 -3.540872,11.578103 -1.13115,3.684026 -2.16409,6.87125 -3.098516,9.561175 -0.983611,-2.689925 -2.040751,-5.877149 -3.171901,-9.561175 -1.13115,-3.684026 -2.311358,-7.543218 -3.540869,-11.578103 L 57.201531,15.539951 C 56.07038,11.446589 55.013241,7.6456263 54.029632,4.13703 Z m 38.838455,40.814047 c -0.450641,1.284567 -0.890356,2.562488 -1.351855,3.853513 0.337064,0.121941 0.605477,0.307507 0.794785,0.565855 0.358544,0.489306 0.53795,1.13823 0.53795,1.946649 v 0.447001 c -0.218245,-0.0851 -0.507034,-0.149169 -0.865579,-0.19172 -0.342958,-0.06382 -0.740096,-0.0956 -1.192175,-0.0956 -0.08764,0 -0.17154,0.01533 -0.258382,0.0186 -1.175186,3.234469 -2.359634,6.390554 -3.552239,9.480043 0.02384,0.02404 0.04482,0.05159 0.06925,0.07493 0.467668,0.425485 1.0207,0.734058 1.659847,0.925527 0.654738,0.191464 1.380024,0.286801 2.175061,0.286801 1.262706,0 2.338106,-0.1061 3.226677,-0.318844 0.888572,-0.191465 1.582163,-0.361641 2.081011,-0.510559 v -9.89242 c 0,-1.042438 -0.08587,-1.989168 -0.25735,-2.840137 -0.17148,-0.850969 -0.467417,-1.574218 -0.88832,-2.169897 -0.40531,-0.595673 -0.950674,-1.053411 -1.636591,-1.372523 -0.169989,-0.07909 -0.351032,-0.147737 -0.542087,-0.207222 z m -19.64066,16.96072 c -0.0069,-0.01767 -0.01381,-0.03555 -0.02067,-0.05322 v 0.05322 z m 68.843335,-24.763346 -3.48402,0.765845 v 23.997501 h 3.48402 V 49.147201 c 0.21825,-0.0851 0.46001,-0.159417 0.72502,-0.223243 0.28061,-0.0851 0.57706,-0.127639 0.88884,-0.127639 0.77945,0 1.30948,0.318822 1.59008,0.957046 0.29619,0.638229 0.4439,1.723356 0.4439,3.2551 v 8.903332 H 136.514 V 52.43434 c 0,-1.148806 -0.0854,-2.191392 -0.25683,-3.127457 -0.15589,-0.936066 -0.4365,-1.744399 -0.84181,-2.425174 -0.38973,-0.680775 -0.91976,-1.20207 -1.59008,-1.563729 -0.65474,-0.382938 -1.48123,-0.574644 -2.47893,-0.574644 -0.34295,0 -0.70125,0.05331 -1.07538,0.159681 -0.35855,0.0851 -0.655,0.180948 -0.88884,0.28732 z m -9.42319,7.531323 c -0.9977,0 -1.88654,0.233733 -2.66599,0.701768 -0.77945,0.468031 -1.44186,1.106707 -1.98747,1.915125 -0.54562,0.787148 -0.96679,1.723115 -1.26297,2.808099 -0.28061,1.063709 -0.42065,2.201631 -0.42065,3.414263 0,1.255178 0.11705,2.425397 0.35088,3.510381 0.24943,1.063709 0.63123,1.988909 1.14567,2.776056 0.53002,0.787148 1.2001,1.415057 2.01073,1.883092 0.81062,0.446755 1.77715,0.67024 2.89956,0.67024 0.73268,0 1.40328,-0.08509 2.01125,-0.255282 0.60797,-0.170193 1.11449,-0.372663 1.5198,-0.606678 l -0.49093,-3.892788 c -0.40531,0.234016 -0.84947,0.404192 -1.33273,0.510564 -0.48326,0.106372 -0.9356,0.159162 -1.35651,0.159162 -1.18476,0 -2.01891,-0.414672 -2.50217,-1.244366 -0.46767,-0.829698 -0.70125,-1.999913 -0.70125,-3.510381 0,-1.425372 0.24943,-2.574061 0.74828,-3.446301 0.51443,-0.872244 1.28623,-1.308447 2.3151,-1.308447 0.48326,0 0.91976,0.06407 1.30948,0.19172 0.38972,0.127643 0.74802,0.276288 1.07539,0.446482 l 0.72502,-3.797183 c -0.51444,-0.297841 -1.04447,-0.521326 -1.59008,-0.670245 -0.54562,-0.170193 -1.14567,-0.255281 -1.80041,-0.255281 z m 25.02018,0 c -0.74828,0 -1.48123,0.191191 -2.19832,0.574125 -0.7015,0.382938 -1.32507,0.946775 -1.87069,1.691372 -0.54561,0.744596 -0.98977,1.680564 -1.33273,2.808094 -0.32737,1.10626 -0.49093,2.404109 -0.49093,3.893302 0,1.233907 0.12472,2.382592 0.37414,3.446305 0.26501,1.063709 0.66267,1.989428 1.19269,2.776571 0.54562,0.765872 1.22336,1.372255 2.03398,1.819015 0.82622,0.446755 1.79275,0.67024 2.89957,0.67024 0.43649,0 0.87299,-0.03229 1.30948,-0.09612 0.43649,-0.06382 0.84181,-0.14891 1.21595,-0.255282 0.38972,-0.08509 0.74087,-0.191196 1.05265,-0.318839 0.31178,-0.127648 0.5612,-0.255277 0.74827,-0.382925 l -0.46767,-3.861264 c -0.38972,0.234015 -0.89676,0.43597 -1.52032,0.606164 -0.60797,0.148923 -1.23154,0.223243 -1.87069,0.223243 -0.99769,0 -1.79248,-0.287042 -2.38487,-0.861445 -0.59237,-0.574403 -0.92767,-1.350962 -1.00562,-2.329574 h 7.90391 c 0.0156,-0.255291 0.0309,-0.542333 0.0465,-0.861445 0.0156,-0.340388 0.0233,-0.648961 0.0233,-0.925527 0,-2.829468 -0.50653,-4.967434 -1.51981,-6.414076 -1.01328,-1.467923 -2.3928,-2.201935 -4.13876,-2.201935 z m -39.30768,0.06356 c -1.02887,0 -2.01073,0.106618 -2.94607,0.319363 -0.93534,0.191464 -1.69947,0.404186 -2.29185,0.638202 v 16.210896 h 3.48402 V 48.956001 c 0.21825,-0.04255 0.46768,-0.07484 0.74828,-0.09612 0.2806,-0.04255 0.54587,-0.06356 0.7953,-0.06356 0.81062,0 1.36417,0.318822 1.66036,0.957046 0.29619,0.638229 0.4439,1.723356 0.4439,3.2551 v 8.903332 h 3.48403 v -9.477457 c 0,-1.148806 -0.0854,-2.191392 -0.25683,-3.127457 -0.17148,-0.936068 -0.46027,-1.744401 -0.86559,-2.425176 -0.40531,-0.680775 -0.95834,-1.20207 -1.65984,-1.563729 -0.68592,-0.382938 -1.55125,-0.574644 -2.59571,-0.574644 z m 52.70634,0.03204 c -1.04446,0 -1.99515,0.138397 -2.85254,0.414963 -0.8418,0.255291 -1.57475,0.53157 -2.19831,0.829407 v 15.892053 h 3.48402 V 49.083639 c 0.15589,-0.06382 0.38232,-0.11713 0.67851,-0.159681 0.31178,-0.06382 0.57654,-0.0956 0.79479,-0.0956 0.48325,0 0.9356,0.06356 1.3565,0.191205 0.42091,0.106367 0.78687,0.212986 1.09865,0.319358 l 0.58445,-3.92534 c -0.18706,-0.106373 -0.41298,-0.191461 -0.67799,-0.255282 -0.26501,-0.0851 -0.52977,-0.148655 -0.79478,-0.191205 -0.26502,-0.06382 -0.53029,-0.106363 -0.79531,-0.127639 -0.265,-0.04255 -0.49092,-0.06408 -0.67799,-0.06408 z m -71.833853,0.350887 v 9.350332 c 0,1.148806 0.08535,2.20164 0.256831,3.158981 0.171479,0.957337 0.460265,1.787205 0.865578,2.489251 0.405314,0.680775 0.950679,1.212833 1.636596,1.595771 0.701502,0.382934 1.574499,0.574125 2.61896,0.574125 1.028872,0 2.011253,-0.106103 2.94659,-0.318843 0.935341,-0.191469 1.698954,-0.404191 2.291332,-0.638207 V 45.126261 H 93.67579 v 12.956315 c -0.218244,0.04255 -0.467672,0.08509 -0.748275,0.127638 -0.2806,0.02128 -0.545877,0.03204 -0.795301,0.03204 -0.810627,0 -1.363655,-0.340867 -1.659844,-1.021642 -0.296193,-0.680775 -0.444419,-1.786918 -0.444419,-3.318662 V 45.126262 Z M 145.02563,48.6046 c 0.40531,0 0.7406,0.09586 1.00562,0.28732 0.2806,0.191469 0.50651,0.435965 0.67799,0.733806 0.18707,0.297837 0.31997,0.638708 0.39791,1.021642 0.0935,0.382938 0.14771,0.77608 0.1633,1.180289 h -4.60644 c 0.0468,-0.404209 0.11679,-0.797351 0.21032,-1.180289 0.10913,-0.404209 0.25735,-0.755324 0.44442,-1.053165 0.18707,-0.297837 0.42117,-0.53209 0.70177,-0.702283 0.2806,-0.191465 0.61538,-0.28732 1.00511,-0.28732 z m -66.268308,6.063194 c 0.233834,0 0.490925,0.02153 0.771528,0.06408 0.2806,0.04255 0.491185,0.08509 0.631485,0.127639 v 3.605982 c -0.187065,0.04255 -0.436493,0.07433 -0.748272,0.0956 -0.311783,0.02128 -0.639415,0.03204 -0.982369,0.03204 -0.639148,0 -1.14567,-0.138397 -1.519804,-0.414963 -0.358549,-0.297841 -0.537954,-0.819132 -0.537954,-1.563729 0,-0.382938 0.06236,-0.701759 0.187069,-0.95705 0.124713,-0.25529 0.296452,-0.45776 0.514697,-0.606678 0.218248,-0.148919 0.467676,-0.244255 0.748275,-0.286806 0.29619,-0.06382 0.607976,-0.09612 0.935345,-0.09612 z" />
    <text
       xml:space="preserve"
       transform="scale(0.26458333)"
       id="text2"
       style="font-style:normal;font-variant:normal;font-weight:bold;font-stretch:normal;font-size:64px;font-family:Ubuntu;-inkscape-font-specification:'Ubuntu Bold';text-align:start;writing-mode:lr-tb;direction:ltr;white-space:pre;shape-inside:url(#rect2);fill:#008000" />
    <text
       xml:space="preserve"
       style="font-style:normal;font-variant:normal;font-weight:bold;font-stretch:normal;font-size:16.9333px;font-family:Ubuntu;-inkscape-font-specification:'Ubuntu Bold';text-align:start;writing-mode:lr-tb;direction:ltr;text-anchor:start;fill:#483e37;fill-opacity:0.602131;stroke-width:0.264583"
       x="165.65736"
       y="17.749004"
       id="text3"><tspan
         sodipodi:role="line"
         id="tspan3"
         style="fill:#483e37;fill-opacity:0.602131;stroke-width:0.264583"
         x="165.65736"
         y="17.749004">ALFA</tspan></text>
  </g>
</svg>
