<?xml version="1.0" encoding="UTF-8" standalone="no"?>
<!-- Created with Inkscape (http://www.inkscape.org/) -->

<svg
   width="240mm"
   height="70mm"
   viewBox="0 0 240 70"
   version="1.1"
   id="svg1"
   inkscape:version="1.4 (86a8ad7, 2024-10-11)"
   sodipodi:docname="logo.svg"
   xmlns:inkscape="http://www.inkscape.org/namespaces/inkscape"
   xmlns:sodipodi="http://sodipodi.sourceforge.net/DTD/sodipodi-0.dtd"
   xmlns="http://www.w3.org/2000/svg"
   xmlns:svg="http://www.w3.org/2000/svg">
  <sodipodi:namedview
     id="namedview1"
     pagecolor="#ffffff"
     bordercolor="#000000"
     borderopacity="0.25"
     inkscape:showpageshadow="2"
     inkscape:pageopacity="0.0"
     inkscape:pagecheckerboard="0"
     inkscape:deskcolor="#d1d1d1"
     inkscape:document-units="mm"
     inkscape:zoom="0.44720819"
     inkscape:cx="434.92048"
     inkscape:cy="203.48465"
     inkscape:window-width="1366"
     inkscape:window-height="697"
     inkscape:window-x="-8"
     inkscape:window-y="-8"
     inkscape:window-maximized="1"
     inkscape:current-layer="layer1" />
  <defs
     id="defs1">
    <rect
       x="91.679895"
       y="53.66628"
       width="328.70597"
       height="163.23494"
       id="rect3" />
    <rect
       x="489.7048"
       y="158.76274"
       width="118.51303"
       height="51.430185"
       id="rect2" />
    <rect
       x="29.069235"
       y="24.597045"
       width="232.55388"
       height="221.3734"
       id="rect1" />
  </defs>
  <g
     inkscape:label="Слой 1"
     inkscape:groupmode="layer"
     id="layer1">
    <path
       id="text5"
       style="font-weight:bold;font-size:66.7177px;font-family:Ubuntu;-inkscape-font-specification:'Ubuntu Bold';text-align:start;writing-mode:lr-tb;direction:ltr;text-anchor:start;fill:#2e41a5;fill-opacity:1;stroke-width:0.347487"
       d="M 32.042865 3.1122011 C 33.021391 6.0477798 34.178072 9.383848 35.512426 13.120039 C 36.891258 16.85623 38.380725 20.770438 39.98195 24.862457 C 41.583175 28.954476 43.273462 33.090949 45.052601 37.271925 C 46.83174 41.452901 48.633382 45.478242 50.456999 49.347868 L 60.464292 49.347868 C 60.482601 49.309017 60.500867 49.267904 60.519172 49.229021 L 53.996755 49.229021 L 53.996755 35.42603 L 54.981403 35.42603 C 54.285434 33.74211 53.563897 31.914095 52.791949 29.799629 C 51.768944 26.997486 50.70173 24.06183 49.589768 20.992816 L 46.386949 11.785521 C 45.363945 8.6720286 44.408085 5.780909 43.518515 3.1122011 L 32.042865 3.1122011 z M 54.981403 35.42603 C 55.20775 35.973683 55.442711 36.569362 55.661021 37.071475 C 55.868413 36.569369 56.097645 35.973675 56.315751 35.42603 L 54.981403 35.42603 z M 56.315751 35.42603 L 58.724087 35.42603 L 58.724087 46.559985 L 61.744398 46.559985 C 63.130721 43.545249 64.508369 40.468678 65.86869 37.271925 C 67.647828 33.090949 69.338116 28.954476 70.939341 24.862457 C 72.540565 20.770438 74.008145 16.85623 75.342499 13.120039 C 76.676852 9.383848 77.855421 6.0477798 78.878426 3.1122011 L 67.803526 3.1122011 C 66.913957 5.780909 65.935571 8.6720286 64.868088 11.785521 C 63.845083 14.854535 62.777231 17.923802 61.665269 20.992816 C 60.597786 24.06183 59.530572 26.997486 58.463088 29.799629 C 57.691137 31.914105 56.986397 33.742105 56.315751 35.42603 z M 61.744398 46.559985 C 61.335778 47.448582 60.930051 48.356238 60.519172 49.229021 L 68.028151 49.229021 L 68.028151 46.559985 L 61.744398 46.559985 z M 84.883312 3.1122011 L 84.883312 49.347868 L 92.613088 49.347868 C 92.137435 49.289222 91.695069 49.21258 91.302351 49.109337 C 90.413398 48.870326 89.706467 48.538274 89.181177 48.113366 C 88.655887 47.675179 88.282205 47.157513 88.059967 46.559985 C 87.837729 45.962458 87.726221 45.305162 87.726221 44.58813 L 87.726221 38.752072 L 92.241691 38.752072 L 92.241691 44.229496 C 92.241691 45.18554 92.434064 45.876041 92.81793 46.300949 C 93.201796 46.725857 93.918516 46.938287 94.969096 46.938287 C 95.292352 46.938287 95.636028 46.931897 95.99969 46.918619 C 96.363353 46.892062 96.686813 46.865247 96.969661 46.83869 L 96.969661 40.607592 L 95.291356 40.607592 L 95.291356 29.465686 L 113.77186 29.465686 L 113.77186 20.92586 L 95.291356 20.92586 L 95.291356 11.852477 L 116.10681 11.852477 L 116.10681 3.1122011 L 84.883312 3.1122011 z M 96.969661 40.607592 L 101.48513 40.607592 L 101.48513 38.752072 L 96.969661 38.752072 L 96.969661 40.607592 z M 101.48513 40.607592 L 101.48513 48.870388 C 100.7174 49.01645 99.727442 49.149271 98.515234 49.268776 C 98.194439 49.303916 97.857955 49.322028 97.528671 49.347868 L 117.64153 49.347868 L 117.64153 49.229021 L 114.97092 49.229021 L 114.97092 43.671669 C 114.97092 42.715625 114.77855 42.038741 114.39468 41.640389 C 114.01081 41.242038 113.29409 41.042806 112.24351 41.042806 C 111.92026 41.042806 111.57658 41.056005 111.21292 41.082562 C 110.84926 41.09584 110.5258 41.115847 110.24295 41.142404 L 110.24295 49.229021 L 105.72748 49.229021 L 105.72748 40.607592 L 101.48513 40.607592 z M 105.72748 40.607592 L 117.64153 40.607592 L 117.64153 49.229021 L 119.48639 49.229021 L 119.48639 43.313454 C 119.48639 42.596421 119.37488 41.945515 119.15264 41.361266 C 118.93041 40.777017 118.55672 40.272549 118.03143 39.847641 C 117.50614 39.422733 116.78879 39.097489 115.87963 38.871756 C 114.99068 38.632745 113.86963 38.513123 112.516 38.513123 C 111.18257 38.513123 109.90959 38.579533 108.69738 38.712317 C 107.48517 38.831823 106.49521 38.964643 105.72748 39.110706 L 105.72748 40.607592 z M 97.528671 49.347868 L 92.613088 49.347868 C 93.238587 49.42499 93.927693 49.467971 94.696611 49.467971 C 95.677166 49.467971 96.613667 49.419672 97.528671 49.347868 z M 143.24557 33.772634 L 138.7301 34.250952 L 138.7301 49.229021 L 143.24557 49.229021 L 143.24557 41.261669 C 143.52842 41.208555 143.84146 41.162152 144.18492 41.122317 C 144.54858 41.069203 144.93269 41.042806 145.33676 41.042806 C 146.34693 41.042806 147.03364 41.242038 147.39731 41.640389 C 147.78117 42.038741 147.97291 42.715625 147.97291 43.671669 L 147.97291 49.229021 L 152.48838 49.229021 L 152.48838 43.313454 C 152.48838 42.596421 152.37751 41.945515 152.15527 41.361266 C 151.95323 40.777017 151.58934 40.272549 151.06405 39.847641 C 150.55896 39.422733 149.87225 39.097489 149.0035 38.871756 C 148.15496 38.632745 147.08413 38.513123 145.79111 38.513123 C 145.34663 38.513123 144.8823 38.546328 144.39742 38.61272 C 143.93274 38.665834 143.54863 38.725854 143.24557 38.792246 L 143.24557 33.772634 z M 76.846592 38.473368 C 76.321302 38.473368 75.796317 38.493375 75.271027 38.53321 C 74.76594 38.559767 74.28075 38.599362 73.81607 38.652475 C 73.351391 38.69231 72.91706 38.745522 72.512991 38.811914 C 72.129125 38.865028 71.806303 38.91824 71.543658 38.971353 L 72.119259 41.361266 C 72.664753 41.228482 73.311035 41.128867 74.058563 41.062475 C 74.806092 40.982804 75.563882 40.943209 76.331614 40.943209 C 77.483212 40.943209 78.291223 41.096037 78.755903 41.40144 C 79.220583 41.706843 79.452751 42.111695 79.452751 42.616274 L 79.452751 42.894978 C 79.169902 42.841865 78.796221 42.80227 78.331541 42.775713 C 77.887064 42.735878 77.371869 42.715871 76.785969 42.715871 C 75.917219 42.715871 75.079202 42.775473 74.271063 42.894978 C 73.462925 43.001205 72.745567 43.18043 72.119259 43.432719 C 71.492952 43.685008 70.987546 44.023869 70.60368 44.448777 C 70.240017 44.873686 70.058709 45.391352 70.058709 46.002158 C 70.058709 46.63952 70.219801 47.177193 70.543056 47.61538 C 70.866312 48.053567 71.331286 48.412434 71.93739 48.69128 C 72.543494 48.956848 73.260852 49.149271 74.089194 49.268776 C 74.93774 49.388282 75.876838 49.447884 76.907215 49.447884 C 78.543696 49.447884 79.937979 49.381473 81.089577 49.248689 C 82.241175 49.129184 83.140479 49.023178 83.78699 48.93023 L 83.78699 42.755626 C 83.78699 42.104985 83.675481 41.5141 83.453243 40.982964 C 83.231005 40.451829 82.847534 40.000573 82.302041 39.628778 C 81.77675 39.256983 81.069182 38.971335 80.180229 38.772159 C 79.291276 38.572983 78.180021 38.473368 76.846592 38.473368 z M 131.03224 38.473368 C 129.73921 38.473368 128.58816 38.619387 127.57799 38.911511 C 126.56782 39.203636 125.70895 39.602098 125.00182 40.106677 C 124.2947 40.597977 123.74886 41.182054 123.365 41.859252 C 123.00134 42.523171 122.82003 43.233679 122.82003 43.990547 C 122.82003 44.773971 122.97133 45.504486 123.27438 46.181684 C 123.59764 46.845603 124.09262 47.422871 124.75933 47.914172 C 125.44625 48.405472 126.31491 48.797126 127.36549 49.08925 C 128.41607 49.368096 129.66884 49.507726 131.12349 49.507726 C 132.07305 49.507726 132.94171 49.454514 133.72965 49.348287 C 134.51758 49.242059 135.17429 49.116047 135.69958 48.969985 L 135.06336 46.539899 C 134.53807 46.685961 133.96222 46.792385 133.33592 46.858777 C 132.70961 46.925169 132.12334 46.958374 131.57784 46.958374 C 130.04238 46.958374 128.96177 46.699541 128.33546 46.181684 C 127.72936 45.663827 127.42611 44.933312 127.42611 43.990547 C 127.42611 43.100895 127.74957 42.383997 128.39608 41.839583 C 129.0628 41.29517 130.06255 41.02272 131.39597 41.02272 C 132.02228 41.02272 132.58834 41.062733 133.09342 41.142404 C 133.59851 41.222074 134.06285 41.314881 134.48712 41.421108 L 135.4271 39.050864 C 134.76038 38.864966 134.07303 38.725756 133.36591 38.632807 C 132.65879 38.52658 131.88078 38.473368 131.03224 38.473368 z M 163.45926 38.473368 C 162.48949 38.473368 161.53997 38.59299 160.61061 38.832001 C 159.70145 39.071012 158.89344 39.422653 158.18632 39.887396 C 157.4792 40.352139 156.90335 40.936635 156.45888 41.640389 C 156.0346 42.330865 155.82201 43.14057 155.82201 44.070057 C 155.82201 44.840203 155.98374 45.55752 156.307 46.221439 C 156.65046 46.885358 157.16565 47.463045 157.85257 47.954345 C 158.55969 48.432367 159.43878 48.810404 160.48936 49.08925 C 161.56015 49.368096 162.81292 49.507726 164.24736 49.507726 C 164.81306 49.507726 165.37848 49.487719 165.94417 49.447884 C 166.50987 49.408049 167.03485 49.354837 167.51974 49.288445 C 168.02482 49.235331 168.47937 49.168921 168.88344 49.08925 C 169.28751 49.00958 169.61097 48.929971 169.85341 48.850301 L 169.24718 46.440301 C 168.74209 46.586364 168.08602 46.712794 167.27788 46.819022 C 166.48995 46.91197 165.6813 46.958374 164.85296 46.958374 C 163.55993 46.958374 162.52954 46.779149 161.76181 46.420633 C 160.99408 46.062117 160.55975 45.577237 160.45873 44.966431 L 170.70214 44.966431 C 170.72234 44.807091 170.74256 44.627866 170.76276 44.42869 C 170.78296 44.216236 170.79275 44.023813 170.79275 43.851194 C 170.79275 42.085169 170.13668 40.750571 168.82346 39.847641 C 167.51023 38.931432 165.72205 38.473368 163.45926 38.473368 z M 180.82429 38.53321 C 179.47066 38.53321 178.23811 38.619627 177.12692 38.792246 C 176.03593 38.951587 175.0864 39.124003 174.27827 39.3099 L 174.27827 49.229021 L 178.79374 49.229021 L 178.79374 41.221914 C 178.99577 41.182079 179.28859 41.148873 179.67245 41.122317 C 180.07652 41.082482 180.4202 41.062475 180.70305 41.062475 C 181.32936 41.062475 181.91499 41.102488 182.46048 41.182159 C 183.00598 41.248551 183.48074 41.314961 183.88481 41.381353 L 184.64228 38.931598 C 184.39984 38.865206 184.10702 38.811994 183.76356 38.772159 C 183.4201 38.719046 183.07643 38.679032 182.73297 38.652475 C 182.38951 38.61264 182.04647 38.586243 181.70301 38.572965 C 181.35955 38.546408 181.06674 38.53321 180.82429 38.53321 z M 163.51988 40.923122 C 164.04517 40.923122 164.4795 40.983143 164.82296 41.102648 C 165.18663 41.222154 165.47944 41.374563 165.70168 41.56046 C 165.94412 41.746358 166.11564 41.958787 166.21666 42.197798 C 166.33788 42.436809 166.40895 42.682444 166.42916 42.934733 L 160.45873 42.934733 C 160.51934 42.682444 160.61063 42.436809 160.73185 42.197798 C 160.87328 41.945509 161.06501 41.726689 161.30746 41.540792 C 161.5499 41.354895 161.85314 41.208875 162.2168 41.102648 C 162.58047 40.983143 163.0148 40.923122 163.51988 40.923122 z M 77.634693 44.707395 C 77.937745 44.707395 78.270994 44.721012 78.634657 44.747569 C 78.998319 44.774125 79.270919 44.800522 79.452751 44.827079 L 79.452751 47.077639 C 79.210309 47.104196 78.887487 47.124203 78.483418 47.137481 C 78.079348 47.15076 77.654807 47.157568 77.210331 47.157568 C 76.381989 47.157568 75.72528 47.071151 75.240396 46.898532 C 74.775716 46.712635 74.543549 46.387391 74.543549 45.922647 C 74.543549 45.683636 74.624414 45.484405 74.786041 45.325065 C 74.947669 45.165724 75.170048 45.039712 75.452897 44.946763 C 75.735745 44.853814 76.058567 44.793794 76.422229 44.767237 C 76.806095 44.727402 77.21042 44.707395 77.634693 44.707395 z "
       transform="scale(0.80979922,1.234874)" />
    <text
       xml:space="preserve"
       transform="scale(0.26458333)"
       id="text2"
       style="font-style:normal;font-variant:normal;font-weight:bold;font-stretch:normal;font-size:64px;font-family:Ubuntu;-inkscape-font-specification:'Ubuntu Bold';text-align:start;writing-mode:lr-tb;direction:ltr;white-space:pre;shape-inside:url(#rect2);fill:#008000" />
    <text
       xml:space="preserve"
       style="font-style:normal;font-variant:normal;font-weight:bold;font-stretch:normal;font-size:16.9333px;font-family:Ubuntu;-inkscape-font-specification:'Ubuntu Bold';text-align:start;writing-mode:lr-tb;direction:ltr;text-anchor:start;fill:#483e37;fill-opacity:0.602131;stroke-width:0.264583"
       x="165.65736"
       y="17.749004"
       id="text3"><tspan
         sodipodi:role="line"
         id="tspan3"
         style="fill:#483e37;fill-opacity:0.602131;stroke-width:0.264583"
         x="165.65736"
         y="17.749004">ALFA</tspan></text>
  </g>
</svg>
